<svg width="64" height="64" viewBox="0 0 64 64" fill="none" xmlns="http://www.w3.org/2000/svg">
  <rect width="64" height="64" rx="18" fill="#FFF7ED"/>
  <path d="M32 10.8C39.3 10.8 44.3 14.5 44.3 19.7C44.3 21.6 43.7 23.1 42.6 24.2C46.6 26.2 49.2 29.5 49.2 33.5C49.2 35.9 48.3 38 46.8 39.9C45.3 41.7 44.4 43.4 44 45.3H21.3C20.9 43.4 19.9 41.7 18.5 39.9C16.8 38 16 35.9 16 33.5C16 29.4 18.7 26 22.7 24C21.7 22.8 21.2 21.4 21.2 19.6C21.2 14.6 25.5 10.8 32 10.8Z" fill="#FFD0DE"/>
  <path d="M23.4 24.7C26.1 23.5 29 23 32 23.1C35.4 23.2 38.3 24.2 40.8 25.8" fill="none" stroke="#F6AFC5" stroke-width="2.2" stroke-linecap="round"/>
  <path d="M21.4 37.1C24.8 38.3 28.4 38.9 32.1 38.9C35.6 38.9 39.1 38.3 42.2 37.1" fill="none" stroke="#FFF1F5" stroke-width="2.5" stroke-linecap="round"/>
  <path d="M17 38H47C50.7 38 53.6 41.1 53.1 44.8C52 53.1 44.8 59.3 36.5 59.3H27.4C19 59.3 11.8 53 10.8 44.6C10.3 41 13.2 38 17 38Z" fill="#2B170F"/>
  <path d="M18.4 42C22.8 42.7 27.3 43 31.9 43C36.3 43 40.8 42.7 45 42" fill="none" stroke="#6B4736" stroke-width="2" stroke-linecap="round"/>
  <path d="M19.8 46.1C23.8 46.7 27.9 47 32 47C36 47 40 46.7 43.8 46.1" fill="none" stroke="#8C604D" stroke-width="1.6" stroke-linecap="round" opacity="0.95"/>
  <circle cx="27.1" cy="47.9" r="1.3" fill="#F4E6DD" opacity="0.95"/>
  <circle cx="36.2" cy="47.9" r="1.3" fill="#F4E6DD" opacity="0.95"/>
  <path d="M28 51.3C29.3 52.5 30.5 53 31.9 53C33.3 53 34.5 52.5 35.6 51.3" fill="none" stroke="#FFF2F6" stroke-width="1.8" stroke-linecap="round"/>
  <circle cx="23.6" cy="50.1" r="1.6" fill="#C08A6F" opacity="0.55"/>
  <circle cx="40.4" cy="50.1" r="1.6" fill="#C08A6F" opacity="0.55"/>
  <circle cx="19.3" cy="24.5" r="1.4" fill="#8AD97B"/>
  <circle cx="42" cy="22.9" r="1.4" fill="#FDBA74"/>
</svg>
