<svg width="64" height="64" viewBox="0 0 64 64" fill="none" xmlns="http://www.w3.org/2000/svg">
  <rect width="64" height="64" rx="18" fill="#FFF7ED"/>
  <path d="M20 27C20 18.8 25.4 13 32 13C38.6 13 44 18.8 44 27C44 30.5 42.9 33.6 40.8 36.1C39.2 38 38.3 40.2 38 42.6H26C25.7 40.2 24.8 38 23.2 36.1C21.1 33.6 20 30.5 20 27Z" fill="#FFF1BF"/>
  <path d="M25 29.5C26.1 25.9 29.1 23.9 33.1 23.9C36.1 23.9 38.8 25.1 40.6 27.4" stroke="#A855F7" stroke-width="3" stroke-linecap="round"/>
  <path d="M27.5 42.5H36.5C36.5 46.2 35 48 32 48C29 48 27.5 46.2 27.5 42.5Z" fill="#FBCFE8"/>
  <path d="M25.4 42.5H38.6C39.6 42.5 40.4 43.3 40.4 44.3C40.4 45 40 45.7 39.4 46L37.2 47.1C36.4 47.5 35.9 48.2 35.9 49.1V49.9C35.9 52.2 34.1 54 31.8 54H32.2C29.9 54 28.1 52.2 28.1 49.9V49.1C28.1 48.2 27.6 47.5 26.8 47.1L24.6 46C24 45.7 23.6 45 23.6 44.3C23.6 43.3 24.4 42.5 25.4 42.5Z" fill="#E9D5FF"/>
  <circle cx="21" cy="20" r="2.1" fill="#FB7185"/>
  <circle cx="45.5" cy="18.5" r="1.8" fill="#F59E0B"/>
</svg>
