<svg width="64" height="64" viewBox="0 0 64 64" fill="none" xmlns="http://www.w3.org/2000/svg">
  <path d="M28 12C29.1 9.7 31 8 33.8 8C37.5 8 40.5 10.8 40.8 14.3C44.4 14.8 47.4 17.2 48.6 20.5C54 21.6 58 26.2 58 31.8C58 35.8 55.9 39.5 52.5 41.6C52 49.6 45.7 56 37.7 56H26.3C18 56 11.3 49 11.5 40.3C8.7 38.2 7 34.9 7 31.2C7 25.5 11 20.7 16.6 19.6C18 16.5 20.8 14.4 24.2 14.1C24.7 13 25.6 12.2 28 12Z" fill="#D91C5C"/>
  <path d="M21 22.5C22.4 20 25.1 18.4 28.1 18.4H35.9C39.1 18.4 42.1 20.1 43.4 22.8" stroke="#F47297" stroke-width="3" stroke-linecap="round"/>
  <g fill="#C21453">
    <circle cx="20" cy="25" r="5"/>
    <circle cx="30" cy="23" r="5.2"/>
    <circle cx="40.5" cy="24.5" r="5"/>
    <circle cx="16.5" cy="34.5" r="5.5"/>
    <circle cx="27" cy="33.5" r="5.7"/>
    <circle cx="37.5" cy="33.5" r="5.7"/>
    <circle cx="47.5" cy="34" r="5.3"/>
    <circle cx="20" cy="44" r="5.8"/>
    <circle cx="31.5" cy="44.8" r="6.2"/>
    <circle cx="43.5" cy="44.2" r="5.8"/>
  </g>
  <g fill="#EA5A87" opacity="0.85">
    <circle cx="28.3" cy="22.2" r="2.2"/>
    <circle cx="18.4" cy="33.4" r="2.2"/>
    <circle cx="38.1" cy="31.9" r="2.4"/>
    <circle cx="30.8" cy="43.2" r="2.5"/>
  </g>
  <path d="M23.2 15.4C21.4 13.9 20.4 11.7 20.4 9.4C23.5 9.5 25.9 11.4 27 14.1" fill="#68A63C"/>
  <path d="M23.2 15.4C21.4 13.9 20.4 11.7 20.4 9.4C23.5 9.5 25.9 11.4 27 14.1" stroke="#4D7F2F" stroke-width="1.8" stroke-linejoin="round"/>
  <path d="M30.7 13.8C29.4 11.8 29.1 9.4 29.8 7C32.4 8.5 33.7 10.9 33.6 13.8" fill="#7ABA4E"/>
  <path d="M30.7 13.8C29.4 11.8 29.1 9.4 29.8 7C32.4 8.5 33.7 10.9 33.6 13.8" stroke="#4D7F2F" stroke-width="1.8" stroke-linejoin="round"/>
  <path d="M38.7 15.4C40.4 13.7 41.2 11.4 41.1 9.1C38.3 9.7 36.4 11.6 35.6 14.1" fill="#68A63C"/>
  <path d="M38.7 15.4C40.4 13.7 41.2 11.4 41.1 9.1C38.3 9.7 36.4 11.6 35.6 14.1" stroke="#4D7F2F" stroke-width="1.8" stroke-linejoin="round"/>
</svg>
